<?xml version="1.0" encoding="utf-8"?>
<!-- Generator: Adobe Illustrator 16.0.0, SVG Export Plug-In . SVG Version: 6.00 Build 0)  -->
<!DOCTYPE svg PUBLIC "-//W3C//DTD SVG 1.1//EN" "http://www.w3.org/Graphics/SVG/1.1/DTD/svg11.dtd">
<svg version="1.1" id="Layer_1" xmlns="http://www.w3.org/2000/svg" xmlns:xlink="http://www.w3.org/1999/xlink" x="0px" y="0px"
	 width="595.28px" height="841.89px" viewBox="0 0 595.28 841.89" enable-background="new 0 0 595.28 841.89" xml:space="preserve">
<g>
	<defs>
		<rect id="SVGID_1_" width="595.28" height="841.89"/>
	</defs>
	<clipPath id="SVGID_2_">
		<use xlink:href="#SVGID_1_"  overflow="visible"/>
	</clipPath>
	<path clip-path="url(#SVGID_2_)" d="M178,372c-5-4-146.5-42.5-146.5-42.5c1.333,29.333,11.5,45,11.5,45c1.833,3.167,4.833,5.5,8,8
		s18.625,7.375,18.625,7.375c43.625,10.25,78,27.625,78,27.625L54,415.875c-1.25,3,21.25,36.938,21.25,36.938
		s8.455,14.772,23.5,14.938C146.5,466,161,473.5,161,473.5l-54.75,18c0,0,29.75,21.5,40.75,27s53,6.667,53,6.667l-15,15.666
		c0,0,27.863,19.113,41.833,24.834c11.834,1.166,17.5-4.334,17.5-4.334l-9.666,21.167l0.5,2.667l41.5,20.833h2.166v-74.901
		l-48.5-23.599C199.516,492.615,149,461,178,372"/>
	<path clip-path="url(#SVGID_2_)" d="M378.667,372c5-4,146.5-42.5,146.5-42.5c-1.333,29.333-11.5,45-11.5,45
		c-1.833,3.167-4.833,5.5-8,8s-18.625,7.375-18.625,7.375c-43.625,10.25-78,27.625-78,27.625l93.625-1.625
		c1.25,3-21.25,36.938-21.25,36.938s-8.455,14.772-23.5,14.938c-47.75-1.75-62.25,5.75-62.25,5.75l54.75,18c0,0-29.75,21.5-40.75,27
		s-53,6.667-53,6.667l15,15.666c0,0-27.863,19.113-41.833,24.834c-11.834,1.166-17.5-4.334-17.5-4.334L322,582.5l-0.5,2.667L280,606
		h-2.166v-74.917l48.5-23.583C357.15,492.615,407.667,461,378.667,372"/>
	<path clip-path="url(#SVGID_2_)" d="M279,455.557c0,0-24.493-110.021-93.83-47.677c0,0,13.997-73.99,93.83-74.323V455.557"/>
	<path clip-path="url(#SVGID_2_)" d="M279.004,455.667c0,0,24.493-110.021,93.83-47.677c0,0-13.997-73.99-93.83-74.323V455.667"/>
	<line clip-path="url(#SVGID_2_)" x1="278.833" y1="333.667" x2="278.833" y2="455.667"/>
	<path clip-path="url(#SVGID_2_)" d="M279,485.333c0,0-22.167-48.167-53.833-59.333c-31.667-11.167-36,16-4.334,29.833
		c17.167,6,23.118,5.007,35.391,9.879c8.499,3.375,11.276,9.121,22.776,28.621"/>
	<path clip-path="url(#SVGID_2_)" d="M279.139,485.333c0,0,22.167-48.167,53.833-59.333c31.667-11.167,36,16,4.334,29.833
		c-17.167,6-23.118,5.007-35.392,9.879c-8.499,3.375-11.276,9.121-22.776,28.621"/>
</g>
</svg>
